<svg xmlns="http://www.w3.org/2000/svg" viewBox="0 0 157.65 113.16"><defs><style>.cls-1{fill:#1F2223;}.cls-2{fill:#fff;}</style></defs><g id="Layer_2" data-name="Layer 2"><g id="Layer_1-2" data-name="Layer 1"><path class="cls-1" d="M155.89,25.77a23.94,23.94,0,0,0-6.68-9.62l-.1-.09L149,16l-.1-.1-.11-.09-.1-.09-.1-.09-.1-.1-.1-.09-.1-.09-.1-.09-.1-.1L148,15l-.1-.09-.1-.09a.94.94,0,0,1-.1-.1l-.1-.09-.1-.09-.1-.09-.11-.1-.1-.09-.1-.09-.1-.09a.94.94,0,0,0-.1-.1l-.1-.09-.1-.09-.1-.1-.1-.09-.1-.09-.1-.09-.1-.1-.1-.09-.1-.09-.11-.09-.1-.1-.1-.09-.1-.09-.1-.09-.1-.1-.1-.09-.1-.09-.1-.09-.1-.1-.1-.09-.1-.09-.1-.09a.94.94,0,0,1-.1-.1l-.1-.09-.11-.09-.1-.09a.94.94,0,0,0-.1-.1l-.1-.09-.1-.09-.1-.09-.1-.1-.1-.09-.1-.09-.1-.09-.1-.1-.1-.09-.1-.09-.1-.09-.11-.1-.1-.09-.1-.09-.1-.1-.1-.09-.1-.09-.1-.09-.1-.1-.1-.09-.1-.09-.1-.09a.94.94,0,0,1-.1-.1l-.1-.09-.1-.09-.1-.09-.11-.1-.1-.09-.1-.09-.1-.09-.1-.1-.1-.09-.1-.09-.1-.09-.1-.1-.1-.09-.1-.09-.1-.09-.1-.1-.11-.09-.1-.09-.1-.09-.1-.1-.1-.09-.1-.09-.1-.09-.1-.1-.1-.09-.1-.09-.1-.09a26.47,26.47,0,0,0-3.47-2.58A30.78,30.78,0,0,0,119.22,0a34.88,34.88,0,0,0-15.13,3.32,9.81,9.81,0,0,0-5.78-1.88h-2A10.51,10.51,0,0,0,90,3.54a9.83,9.83,0,0,0-6-2.06H71.14a9.83,9.83,0,0,0-8.61,5.1L58,14.9a9.52,9.52,0,0,0-2.9-2.57l-.15-.09-.15-.1-.15-.09-.16-.1-.15-.09-.15-.1L54,11.67l-.15-.09-.16-.1-.15-.09-.15-.1-.15-.09-.15-.1L52.93,11l-.15-.1-.15-.09-.15-.1-.16-.09-.15-.1L52,10.44a1.19,1.19,0,0,0-.15-.09l-.15-.1-.16-.09-.15-.1L51.26,10l-.15-.1L51,9.78l-.15-.1-.15-.09-.15-.1-.15-.09-.16-.1L50,9.21l-.15-.1L49.74,9a.83.83,0,0,0-.16-.09l-.15-.1-.15-.09-.15-.1L49,8.55l-.16-.1-.15-.09-.15-.1-.15-.09-.15-.1L48.06,8l-.15-.1-.15-.09-.15-.09-.16-.1-.15-.09-.15-.1L47,7.32l-.15-.1-.16-.09L46.54,7l-.15-.09-.15-.1-.16-.09-.15-.1-.15-.09-.15-.1-.15-.09a1.29,1.29,0,0,0-.16-.09l-.15-.1L45,6.09,44.87,6l-.16-.09-.15-.1-.15-.09-.15-.1-.15-.09L44,5.42l-.15-.09-.15-.1-.15-.09L43.34,5,43.19,5A1.19,1.19,0,0,0,43,4.86l-.15-.1-.15-.09-.16-.1-.15-.09-.15-.1-.15-.09L42,4.19l-.15-.09L41.67,4l-.15-.09-.15-.1-.16-.09-.15-.1-.15-.09-.15-.09-.15-.1-.16-.09-.15-.1-.15-.09L40,3l-.16-.09a9.74,9.74,0,0,0-5-1.39H21.69a9.84,9.84,0,0,0-9.6,11.94l13.16,60-.37.61A22.08,22.08,0,0,1,21,78.69s-.69.56-3.12.56A17.53,17.53,0,0,1,15.08,79l-1.64-.3a9.72,9.72,0,0,0-1.87-.18,9.82,9.82,0,0,0-9.68,8.12L.15,96.51A9.75,9.75,0,0,0,6,107.27a20.33,20.33,0,0,0,3.54,1.12l.17,0,.17,0,.16,0,.17,0,.17,0,.17,0,.16,0,.17,0,.17,0,.17,0,.16,0,.17,0,.17,0,.17,0,.17,0,.17,0,.16,0,.17,0,.17,0,.16,0,.17,0,.17,0,.17,0,.17,0,.16,0,.17,0,.17,0,.17,0,.17,0,.16,0,.17,0,.17,0,.17,0,.17,0,.16,0,.17,0,.17,0,.17,0,.16,0,.17,0,.17,0,.17,0,.17,0,.16,0,.17,0,.17,0,.17,0,.17,0,.16,0,.17,0,.17,0,.17,0,.16,0,.17,0,.17,0,.17,0,.17,0,.16,0,.17,0,.17,0,.17,0,.17,0,.16,0,.17,0,.17,0,.17,0,.16,0,.17,0,.17,0,.17,0,.17,0,.16,0,.17,0,.17,0,.17,0,.17,0,.16,0,.17,0,.17,0,.17,0,.16,0,.17,0,.17,0,.17,0,.17,0,.16,0,.17,0,.17,0,.17,0,.17,0,.16,0,.17,0,.17,0,.17,0,.16,0,.17,0,.17,0,.17,0,.17,0,.16,0c.43.1.86.19,1.3.27a35.78,35.78,0,0,0,6.1.51,33.61,33.61,0,0,0,13.74-2.82,36.6,36.6,0,0,0,11.39-8.06,59.18,59.18,0,0,0,8.75-11.71L72.53,82l.58.23.13,0,.14,0,.13.06.14,0,.13.06.14,0,.13,0,.14.06.13.05.14,0,.13.06.14,0,.13,0L75,83l.13,0,.14,0,.13.06.14,0,.13,0,.14.06.13,0,.14.05.13.06.14,0,.13,0,.14.06.13,0,.14.06.13,0,.14,0,.13.06.14,0,.13,0,.14.06.13,0,.14.05.13.06.14,0,.13,0,.13.06.14,0,.13,0,.14.06.13,0,.14,0,.13.06.14,0,.13.05.14.06.13.05.14.06.13,0,.14,0,.13.06.14,0,.13,0,.14.06.13,0,.14,0,.13.06.14,0,.13.05.14.06.13.05.14,0,.13.06.14,0,.13,0,.14.06.13,0,.14,0,.13.06.14,0,.13.06.13,0,.14.05.13.06.14.05.14,0,.13.06.13,0,.14,0,.13.06.14,0,.13,0,.14.06.13,0,.14.05.13.06.14.05.13,0,.14.06.13,0,.14.06.13,0,.14,0,.13.06.14,0,.13,0,.14.06a9.42,9.42,0,0,0,3.14.54h11.48a9.27,9.27,0,0,0,9.17-7.69l.29-1.6c.1.13.19.27.3.4a9.71,9.71,0,0,0,3.43,2.62l.11.05.12.06.11,0,.11.06.12,0,.11,0,.11.06.12,0,.11,0,.11.06.12,0,.11,0,.11.06.12,0,.11.06.12.05.11,0,.11.06.12,0,.11,0,.11.06.12,0,.11.06.11,0,.12,0,.11.06.11,0,.12,0,.11.06.11.05.12.06.11.05.11,0,.12.06.11,0,.12,0,.11.06.11,0,.12,0L119,84l.11,0,.12.06.11,0,.11.05.12.06.11.05.11,0,.12.06.11,0,.11.06.12,0,.11,0,.11.06.12,0,.11,0,.12.06.11,0,.11.05.12.06.11.05.11.06.12.05.11,0,.11.06.12,0,.11,0,.11.06.12,0,.11.06.11,0,.12,0,.11.06.11,0,.12.05.11.06.12.05.11.06.11.05.12,0,.11.06.11,0,.12,0,.11.06.11,0,.12,0,.11.06.11,0,.12.06.11,0,.11.05.12.06.11.05.12,0,.11.06.11,0,.12.06.11,0,.11,0,.12.06.11,0a9.26,9.26,0,0,0,4,.9h11.38a9.27,9.27,0,0,0,9.17-7.69L157.07,42A30.28,30.28,0,0,0,155.89,25.77Z"/><path class="cls-2" d="M138.62,19.82a17.25,17.25,0,0,0-7.17-8.7A22.75,22.75,0,0,0,119.22,8a26.69,26.69,0,0,0-12.72,3.06,22.44,22.44,0,0,0-3.44,2.26,1.82,1.82,0,0,1-3-1.73,1.82,1.82,0,0,0-1.8-2.15h-2a2.49,2.49,0,0,0-2.52,2.32,9.68,9.68,0,0,1-1.28,4.44L84.55,30.05a43.35,43.35,0,0,0-5,13.94l-5,28.59a1.82,1.82,0,0,0,1.8,2.14H88.4a1.82,1.82,0,0,0,1.8-1.51l6.49-36.77a18,18,0,0,1,3-7.44,15.24,15.24,0,0,1,5.53-4.8,15.44,15.44,0,0,1,7.13-1.68,12.2,12.2,0,0,1,6.55,1.68,9.12,9.12,0,0,1,3.83,4.8,14.42,14.42,0,0,1,.37,7.44l-6.37,36.14a1.82,1.82,0,0,0,1.8,2.14h12a1.82,1.82,0,0,0,1.8-1.51l7.14-40.49A24.06,24.06,0,0,0,138.62,19.82Z"/><path class="cls-2" d="M84,9.48H71.14a1.84,1.84,0,0,0-1.6.95L47.73,50.12a1.83,1.83,0,0,1-3.4-.53L36.63,11a1.83,1.83,0,0,0-1.79-1.48H21.69a1.83,1.83,0,0,0-1.78,2.22L33.59,74.08a1.85,1.85,0,0,1-.22,1.34l-1.71,2.82a29.62,29.62,0,0,1-5.54,6.54q-2.89,2.46-8.29,2.46a24.87,24.87,0,0,1-4.08-.36c-.65-.11-1.27-.21-1.83-.32A1.82,1.82,0,0,0,9.77,88L8,97.89a1.82,1.82,0,0,0,1.07,2,13.37,13.37,0,0,0,3,.85,30,30,0,0,0,5.09.42,27.47,27.47,0,0,0,11.26-2.28A30.85,30.85,0,0,0,38,92.1a54.45,54.45,0,0,0,8-10.74L85.54,12.22A1.84,1.84,0,0,0,84,9.48Z"/></g></g></svg>
