<svg xmlns="http://www.w3.org/2000/svg" viewBox="0 0 596.17 136.62"><defs><style>.cls-1{fill:#1e2223;}.cls-2{fill:#fff;}</style></defs><g id="Layer_2" data-name="Layer 2"><g id="Layer_1-2" data-name="Layer 1"><path class="cls-1" d="M590.38,22.22A44.38,44.38,0,0,0,574.84,6.14,41.93,41.93,0,0,0,552.56,0a40,40,0,0,0-16.83,3.46,12.34,12.34,0,0,0-6.74-2H495.13a11.74,11.74,0,0,0-11,7.66L480,20.5A10.76,10.76,0,0,0,478.66,23l-.6,1.63-5.41-15A12.46,12.46,0,0,0,461,1.47h-13.6a11.72,11.72,0,0,0-8.18,3.31A41.16,41.16,0,0,0,419.45,0a40.37,40.37,0,0,0-17,3.5,33.63,33.63,0,0,0-3.8,2.05A12.39,12.39,0,0,0,388.84.73h-1.69a34.52,34.52,0,0,0-13.62,2.6A12.35,12.35,0,0,0,367,1.47H355.64a11.74,11.74,0,0,0-11.74,11.7l-2.68,37.6h-5.93a50.14,50.14,0,0,0,.36-5.94,44,44,0,0,0-6.18-23.15A44.64,44.64,0,0,0,313.18,5.85a47.32,47.32,0,0,0-45.58,0,44.88,44.88,0,0,0-12.74,10.77A32.7,32.7,0,0,0,242.47,4.47a36.31,36.31,0,0,0-18-4.47,34.88,34.88,0,0,0-14.85,3.11c-1.82-1-37.14-1.51-41.2.22a12.35,12.35,0,0,0-6.54-1.86H150.56a11.74,11.74,0,0,0-11.51,9.44A46.92,46.92,0,0,0,86.28,5.85c-.42.24-.83.5-1.24.76a12.39,12.39,0,0,0-10-5.14H62A11.61,11.61,0,0,0,51,9L43.72,29.27l-7-19.72A12.49,12.49,0,0,0,25.1,1.47H11.73A11.69,11.69,0,0,0,2,6.57,11.91,11.91,0,0,0,.85,17.64L24.69,77.87a15.18,15.18,0,0,1-1.64,2.6,9.19,9.19,0,0,1-1.3.08,17.07,17.07,0,0,1-2.59-.23L17.48,80a11.94,11.94,0,0,0-2.23-.21A11.73,11.73,0,0,0,3.52,91.52v10c0,5,20.37,31.5,24.72,33.2a24.21,24.21,0,0,0,4.92,1.33,39,39,0,0,0,6.51.54,33.44,33.44,0,0,0,14.55-3.13,32.59,32.59,0,0,0,11.31-9.14,50.83,50.83,0,0,0,7.28-12.74l8.85-22.36c.51,1,1,2,1.65,3a42.2,42.2,0,0,0,15.47,15,43.2,43.2,0,0,0,49.68-5,11.67,11.67,0,0,0,11.37,9.07h11.61a11,11,0,0,0,11-11V82.67c.4.61,4.82,17,4.82,17,1.65,6,5.24,11.63,11.67,11.63h11.61a11,11,0,0,0,11-11V65.11a5.77,5.77,0,0,1,.46-2.58,1.74,1.74,0,0,1,.73-.78,2.67,2.67,0,0,1,.56-.23V75.85c0,2.58,4.38,23.86,4.38,23.86,1,6.43,5.23,11.63,11.66,11.63H250.9a11.05,11.05,0,0,0,11-9.61,43.15,43.15,0,0,0,57.75.13,11.66,11.66,0,0,0,11.45,9.48h33.44c6.09,0,13-19.14,13.28-21,0,.1.06.21.1.31a34.35,34.35,0,0,0,13.37,15.81,41.06,41.06,0,0,0,22.59,6.29,39.11,39.11,0,0,0,16.38-3.28A28.84,28.84,0,0,0,443.93,97a24.69,24.69,0,0,0,2.43-6.38l5.24,13.32a11.77,11.77,0,0,0,10.86,7.45h10.9a11,11,0,0,0,10.28-7s9.69-20.4,10.08-20.92v39.22a11.66,11.66,0,0,0,11.66,11.63H517c6.85,0,18-17.13,18.17-21.67.79,0,1.57.07,2.37.07A40.29,40.29,0,0,0,558.68,107c6.18-3.74,29.79-36,31.83-39.69a45.94,45.94,0,0,0,5.66-22.51A45,45,0,0,0,590.38,22.22Z"/><path class="cls-2" d="M42,52.43,27.19,13.13a2.32,2.32,0,0,0-2.09-1.49H11.73a1.55,1.55,0,0,0-1.42,2.25l25.1,63.44a1.78,1.78,0,0,1,0,1.36l-1.24,2.88a23.43,23.43,0,0,1-4.45,6.65q-2.5,2.5-8,2.5a26.92,26.92,0,0,1-4.22-.36L15.61,90a1.53,1.53,0,0,0-1.92,1.5v10a2.29,2.29,0,0,0,1.44,2,16.68,16.68,0,0,0,3.2.86,31.35,31.35,0,0,0,5.25.43,25.09,25.09,0,0,0,11-2.32,24.34,24.34,0,0,0,8.48-6.9,43.39,43.39,0,0,0,6.23-10.92L77.15,14.42a2.2,2.2,0,0,0-2.1-2.78H62a1.5,1.5,0,0,0-1.46,1L45.5,53C44.93,54.48,42.59,54.13,42,52.43Z"/><path class="cls-2" d="M126.83,14.69a37.15,37.15,0,0,0-35.52,0A34.78,34.78,0,0,0,78.62,27a33.6,33.6,0,0,0-4.76,17.82,33.55,33.55,0,0,0,4.76,17.82A34.59,34.59,0,0,0,91.37,75a36.87,36.87,0,0,0,35.34,0A34.81,34.81,0,0,0,139.4,62.65a33.55,33.55,0,0,0,4.76-17.82A33.84,33.84,0,0,0,139.46,27,34.46,34.46,0,0,0,126.83,14.69Zm-1.77,40.46a18.06,18.06,0,0,1-6.47,7.14A18,18,0,0,1,93,55.15a22,22,0,0,1-2.38-10.32A21.62,21.62,0,0,1,93,34.58a18,18,0,0,1,6.53-7.08,19.09,19.09,0,0,1,19.1,0,18.16,18.16,0,0,1,6.47,7.08,21.62,21.62,0,0,1,2.38,10.25A22,22,0,0,1,125.06,55.15Z"/><path class="cls-2" d="M170.17,13.83A13.21,13.21,0,0,0,167.49,16c-1.12,1.15-3.36,0-3.36-1.72v-.42a2.29,2.29,0,0,0-2.21-2.18H150.56A1.49,1.49,0,0,0,149,13.17V75.85A2.29,2.29,0,0,0,151.22,78h12.33a1.5,1.5,0,0,0,1.56-1.54V41.05q0-7.57,4.15-11.72c2.76-2.76,6.43-4.15,11-4.15h4.18A1.5,1.5,0,0,0,186,23.65V13.09a2.3,2.3,0,0,0-2.22-2.19h-1.69A23,23,0,0,0,170.17,13.83Z"/><path class="cls-2" d="M237.5,13.34a26.2,26.2,0,0,0-13-3.17,24.1,24.1,0,0,0-12.39,3.11,17.43,17.43,0,0,0-3.1,2.3c-1.15,1.07-3.31-.06-3.31-1.76h0a2.29,2.29,0,0,0-2.22-2.18H192.14a1.49,1.49,0,0,0-1.56,1.53V75.85A2.29,2.29,0,0,0,192.79,78h12.34a1.5,1.5,0,0,0,1.56-1.54V39.1a15.64,15.64,0,0,1,1.71-7.57,11.88,11.88,0,0,1,4.75-4.88,15,15,0,0,1,13.92,0,12,12,0,0,1,4.76,4.88,15.76,15.76,0,0,1,1.71,7.57V75.85A2.29,2.29,0,0,0,235.75,78H248a1.51,1.51,0,0,0,1.57-1.54V35.31a26.41,26.41,0,0,0-3.18-13.12A22.55,22.55,0,0,0,237.5,13.34Z"/><path class="cls-2" d="M308.15,14.69a37.15,37.15,0,0,0-35.52,0A34.78,34.78,0,0,0,259.94,27a33.6,33.6,0,0,0-4.76,17.82,33.55,33.55,0,0,0,4.76,17.82A34.59,34.59,0,0,0,272.69,75,36.87,36.87,0,0,0,308,75a34.88,34.88,0,0,0,12.69-12.33,33.55,33.55,0,0,0,4.76-17.82A33.84,33.84,0,0,0,320.78,27,34.46,34.46,0,0,0,308.15,14.69Zm-1.77,40.46a18.13,18.13,0,0,1-6.47,7.14,18,18,0,0,1-25.63-7.14,22,22,0,0,1-2.38-10.32,21.62,21.62,0,0,1,2.38-10.25,18,18,0,0,1,6.53-7.08,19.09,19.09,0,0,1,19.1,0,18.24,18.24,0,0,1,6.47,7.08,21.73,21.73,0,0,1,2.38,10.25A22.14,22.14,0,0,1,306.38,55.15Z"/><path class="cls-2" d="M333.1,78h12.34A1.5,1.5,0,0,0,347,76.49V63.13a2.3,2.3,0,0,0-2.22-2.19H332.45a1.5,1.5,0,0,0-1.56,1.54V75.85A2.29,2.29,0,0,0,333.1,78Z"/><path class="cls-2" d="M375.25,13.83A13.27,13.27,0,0,0,372.56,16c-1.12,1.15-3.35,0-3.35-1.72v-.42A2.29,2.29,0,0,0,367,11.64H355.64a1.5,1.5,0,0,0-1.57,1.53V75.85A2.29,2.29,0,0,0,356.29,78h12.33a1.5,1.5,0,0,0,1.56-1.54V41.05q0-7.57,4.15-11.72t11-4.15h4.17a1.49,1.49,0,0,0,1.56-1.53V13.09a2.3,2.3,0,0,0-2.21-2.19h-1.69A23,23,0,0,0,375.25,13.83Z"/><path class="cls-2" d="M413,25.12a10.24,10.24,0,0,1,6.35-1.77,16.21,16.21,0,0,1,9,2.63,14.29,14.29,0,0,1,4.86,5.22,2.12,2.12,0,0,0,2.62,1.1L445,28a1.62,1.62,0,0,0,.68-2.2,24.57,24.57,0,0,0-9.61-11.11,30.6,30.6,0,0,0-16.6-4.52,30.23,30.23,0,0,0-12.75,2.56A20.68,20.68,0,0,0,398,19.87a18.58,18.58,0,0,0-3.11,10.68,17.7,17.7,0,0,0,4.33,11.9q4.33,5.07,12.63,7.39l10.87,3a19.33,19.33,0,0,1,3.9,1.52,9,9,0,0,1,2.75,2.2,5,5,0,0,1,1,3.23A6.13,6.13,0,0,1,427.87,65a11,11,0,0,1-6.83,2,17.42,17.42,0,0,1-10.19-3.17,20.38,20.38,0,0,1-6.19-6.91A2.16,2.16,0,0,0,402,55.78l-9.09,4.31a1.62,1.62,0,0,0-.68,2.17,26.34,26.34,0,0,0,10.33,12.17A33.37,33.37,0,0,0,421,79.49a31.5,31.5,0,0,0,13.18-2.56A20.72,20.72,0,0,0,444.1,68a17.18,17.18,0,0,0,2-7.06q.6-8.22-4.39-13.69Q437.27,42.4,429.09,40l-10.62-3.17a30.55,30.55,0,0,1-4.08-1.59,7,7,0,0,1-2.75-2.2,5,5,0,0,1-1-3.05A5.76,5.76,0,0,1,413,25.12Z"/><path class="cls-2" d="M476.35,49.8,463.08,13.16A2.3,2.3,0,0,0,461,11.64h-13.6A1.55,1.55,0,0,0,446,13.89l24.65,62.67A2.32,2.32,0,0,0,472.7,78h11.58a1.52,1.52,0,0,0,1.45-.94l24.65-62.67a2.21,2.21,0,0,0-2.11-2.78H495.13a1.5,1.5,0,0,0-1.46,1L479.91,50.34C479.35,51.88,477,51.52,476.35,49.8Z"/><path class="cls-2" d="M581.55,27.26a34.26,34.26,0,0,0-12-12.45,31.85,31.85,0,0,0-17-4.64,29.49,29.49,0,0,0-13.55,3,24.67,24.67,0,0,0-4.55,3c-1.18,1-3.26-.15-3.26-1.81v-.52A2.29,2.29,0,0,0,529,11.64H517.63a1.49,1.49,0,0,0-1.56,1.53v87.09a2.3,2.3,0,0,0,2.22,2.18h12.33a1.5,1.5,0,0,0,1.56-1.54V75.29c0-1.4,1.58-2.05,2.82-1.11a23.69,23.69,0,0,0,4.2,2.51,31.05,31.05,0,0,0,13.24,2.8,32.61,32.61,0,0,0,17.21-4.57,33.07,33.07,0,0,0,12-12.51A35.67,35.67,0,0,0,586,44.83,34.82,34.82,0,0,0,581.55,27.26ZM567,55.21a17.9,17.9,0,0,1-16.35,9.64,17.71,17.71,0,0,1-16.05-9.64,21.89,21.89,0,0,1-2.38-10.38,21.62,21.62,0,0,1,2.38-10.25,17.71,17.71,0,0,1,16.05-9.64A17.9,17.9,0,0,1,567,34.58a21.18,21.18,0,0,1,2.44,10.25A21.45,21.45,0,0,1,567,55.21Z"/></g></g></svg>