<svg xmlns="http://www.w3.org/2000/svg" viewBox="0 0 596.17 144.33"><defs><style>.cls-1{fill:#fff;}.cls-2{fill:#1e2223;}</style></defs><g id="Layer_2" data-name="Layer 2"><g id="Layer_1-2" data-name="Layer 1"><path class="cls-1" d="M44,144.33a44.42,44.42,0,0,1-7.22-.59,29.81,29.81,0,0,1-5.83-1.6c-3.85-1.5-10.79-9.92-15.93-16.73C3.46,110.12,3.46,106.29,3.46,104.85V95A16.54,16.54,0,0,1,20,78.48a16.21,16.21,0,0,1,2.78.23L1.19,24.18A16.67,16.67,0,0,1,2.85,8.65,16.51,16.51,0,0,1,16.53,1.44H29.68a17.31,17.31,0,0,1,16.1,11.2L48,19l2.45-6.78A16.38,16.38,0,0,1,66,1.44H78.79A17.18,17.18,0,0,1,89.51,5.25,51.69,51.69,0,0,1,137.12,6.4c.92.52,1.81,1.07,2.69,1.65A16.57,16.57,0,0,1,153,1.44H164.2A17.13,17.13,0,0,1,171.33,3c2.65-.43,8-.85,19.21-.85,11.61,0,17.18.34,20,.72A40,40,0,0,1,225.74,0a40.63,40.63,0,0,1,20.1,5,37.31,37.31,0,0,1,10.27,8.42A49.17,49.17,0,0,1,290.46,0,49.76,49.76,0,0,1,315.4,6.4a48.92,48.92,0,0,1,17.82,17.32,45.38,45.38,0,0,1,3.91,8.17l1-14.13A16.54,16.54,0,0,1,354.67,1.44h11.17a17.18,17.18,0,0,1,6.72,1.37A39.94,39.94,0,0,1,385.66.72h1.66a17.09,17.09,0,0,1,10.47,3.56l.8-.38A44.56,44.56,0,0,1,417.41,0a46.06,46.06,0,0,1,18.86,3.85,16.46,16.46,0,0,1,8.61-2.41h13.37a17.26,17.26,0,0,1,16.17,11.39l.83,2.29,1-2.86A16.56,16.56,0,0,1,491.83,1.44h33.28A17.2,17.2,0,0,1,532,2.87,45.51,45.51,0,0,1,548.29,0a46.23,46.23,0,0,1,24.52,6.77,48.58,48.58,0,0,1,17,17.6,49.18,49.18,0,0,1,6.35,24.71A50.1,50.1,0,0,1,590,73.63c-1.91,3.44-25.6,36.36-33.08,40.88a44.23,44.23,0,0,1-22.1,6.3c-3.55,8.29-13.27,21.26-21.48,21.26H501.9a16.47,16.47,0,0,1-16.46-16.44V109q-.18.35-.33.69a15.75,15.75,0,0,1-14.69,9.83H459.7A16.61,16.61,0,0,1,444.37,109l-.95-2.42a33.77,33.77,0,0,1-13.35,10.59,43.41,43.41,0,0,1-18.18,3.68,45.25,45.25,0,0,1-24.92-7,39.91,39.91,0,0,1-9.54-8.52c-3.09,6.72-7.9,14.14-14.05,14.14H330.5a16.49,16.49,0,0,1-13.14-6.53c-1,.64-1.94,1.25-2.94,1.82a48.46,48.46,0,0,1-46.93,0c-1-.57-2-1.18-3-1.83a15.91,15.91,0,0,1-12.82,6.52h-11.3a15.84,15.84,0,0,1-14.14-8.79A15.89,15.89,0,0,1,212,119.47H200.63c-5.53,0-10.15-2.84-13.29-8a15.89,15.89,0,0,1-13.78,8H162.15a16.56,16.56,0,0,1-12.94-6.31c-.86.56-1.73,1.1-2.62,1.6a47.57,47.57,0,0,1-60.22-11.15l-5.13,13a55,55,0,0,1-7.9,13.8,36.91,36.91,0,0,1-12.86,10.37A37.77,37.77,0,0,1,44,144.33Z"/><path class="cls-2" d="M585.48,26.84A43.79,43.79,0,0,0,570.2,11a41.35,41.35,0,0,0-21.91-6,39.4,39.4,0,0,0-16.55,3.4,12.12,12.12,0,0,0-6.63-2H491.83A11.54,11.54,0,0,0,481,14l-4.07,11.18a10.62,10.62,0,0,0-1.29,2.48l-.59,1.6-5.32-14.7a12.25,12.25,0,0,0-11.46-8.09H444.88a11.55,11.55,0,0,0-8,3.26A40.4,40.4,0,0,0,417.41,5a39.72,39.72,0,0,0-16.73,3.44,35.17,35.17,0,0,0-3.74,2,12.15,12.15,0,0,0-9.62-4.74h-1.66a34.11,34.11,0,0,0-13.39,2.55,12.18,12.18,0,0,0-6.43-1.83H354.67A11.53,11.53,0,0,0,343.14,18l-2.64,37h-5.84a48.58,48.58,0,0,0,.36-5.84A43.25,43.25,0,0,0,329,26.31a44,44,0,0,0-16-15.56,45.14,45.14,0,0,0-57.33,10.59A32.16,32.16,0,0,0,243.4,9.39,35.78,35.78,0,0,0,225.74,5a34.56,34.56,0,0,0-14.6,3.05c-1.79-1-36.52-1.47-40.51.22a12.15,12.15,0,0,0-6.43-1.83H153a11.55,11.55,0,0,0-11.32,9.29,46.13,46.13,0,0,0-51.88-5c-.42.24-.82.5-1.23.74a12.18,12.18,0,0,0-9.82-5H66a11.41,11.41,0,0,0-10.8,7.45L48,33.78,41.1,14.39A12.29,12.29,0,0,0,29.68,6.44H16.53a11.51,11.51,0,0,0-9.54,5A11.67,11.67,0,0,0,5.84,22.34L29.27,81.56a14.53,14.53,0,0,1-1.61,2.56,8.85,8.85,0,0,1-1.28.08A16.57,16.57,0,0,1,23.84,84c-.59-.1-1.14-.19-1.65-.29a12.42,12.42,0,0,0-2.2-.2A11.53,11.53,0,0,0,8.46,95v9.86c0,5,20,31,24.31,32.63a23.53,23.53,0,0,0,4.83,1.32,38.83,38.83,0,0,0,6.4.52,32.81,32.81,0,0,0,14.31-3.07,32,32,0,0,0,11.12-9,49.58,49.58,0,0,0,7.16-12.52l8.7-22c.5,1,1,2,1.62,3a41.51,41.51,0,0,0,15.21,14.71A42.38,42.38,0,0,0,151,105.55a11.47,11.47,0,0,0,11.18,8.92h11.41a10.86,10.86,0,0,0,10.86-10.83V86.29c.4.59,4.74,16.75,4.74,16.75,1.62,5.85,5.15,11.43,11.47,11.43H212a10.86,10.86,0,0,0,10.86-10.83V69a5.61,5.61,0,0,1,.46-2.54,1.68,1.68,0,0,1,.71-.77,3,3,0,0,1,.55-.22V79.57c0,2.55,4.31,23.47,4.31,23.47,1,6.32,5.14,11.43,11.46,11.43H251.7A10.85,10.85,0,0,0,262.45,105a42.39,42.39,0,0,0,56.79.13,11.46,11.46,0,0,0,11.26,9.32h32.88c6,0,12.74-18.82,13.05-20.67,0,.1.06.2.11.3a33.64,33.64,0,0,0,13.14,15.54,40.28,40.28,0,0,0,22.21,6.19A38.58,38.58,0,0,0,428,112.6a28.39,28.39,0,0,0,13.49-12.27,24.53,24.53,0,0,0,2.38-6.28l5.15,13.1a11.59,11.59,0,0,0,10.68,7.32h10.72a10.77,10.77,0,0,0,10.1-6.83s9.53-20,9.92-20.57v38.56a11.46,11.46,0,0,0,11.46,11.44h11.42c6.74,0,17.65-16.85,17.87-21.31.77,0,1.54.07,2.32.07a39.5,39.5,0,0,0,20.8-5.6c6.08-3.67,29.29-35.41,31.29-39a45.12,45.12,0,0,0,5.57-22.13A44.29,44.29,0,0,0,585.48,26.84Z"/><path class="cls-1" d="M46.24,56.55,31.73,17.91a2.29,2.29,0,0,0-2.05-1.47H16.53a1.53,1.53,0,0,0-1.39,2.22L39.82,81a1.75,1.75,0,0,1,0,1.33L38.62,85.2a23,23,0,0,1-4.38,6.54q-2.46,2.46-7.86,2.46a26,26,0,0,1-4.14-.36l-1.89-.33A1.51,1.51,0,0,0,18.46,95v9.86a2.24,2.24,0,0,0,1.42,2,16.07,16.07,0,0,0,3.14.85,31.34,31.34,0,0,0,5.16.42A24.76,24.76,0,0,0,39,105.84a24,24,0,0,0,8.34-6.78A42.61,42.61,0,0,0,53.5,88.32L80.86,19.18a2.18,2.18,0,0,0-2.07-2.74H66a1.47,1.47,0,0,0-1.43.95L49.73,57.07C49.17,58.57,46.87,58.22,46.24,56.55Z"/><path class="cls-1" d="M129.7,19.44a36.55,36.55,0,0,0-34.92,0A34.2,34.2,0,0,0,82.3,31.56a33,33,0,0,0-4.68,17.52A33,33,0,0,0,82.3,66.6,34.07,34.07,0,0,0,94.84,78.72a36.2,36.2,0,0,0,34.74,0A34.2,34.2,0,0,0,142.06,66.6a33,33,0,0,0,4.68-17.52,33.23,33.23,0,0,0-4.62-17.58A33.89,33.89,0,0,0,129.7,19.44ZM128,59.22a17.74,17.74,0,0,1-6.36,7,18.75,18.75,0,0,1-18.78,0,17.59,17.59,0,0,1-6.42-7,21.65,21.65,0,0,1-2.34-10.14A21.29,21.29,0,0,1,96.4,39a17.69,17.69,0,0,1,6.42-7,18.75,18.75,0,0,1,18.78,0A17.84,17.84,0,0,1,128,39a21.29,21.29,0,0,1,2.34,10.08A21.65,21.65,0,0,1,128,59.22Z"/><path class="cls-1" d="M172.32,18.6a12.52,12.52,0,0,0-2.64,2.09c-1.1,1.13-3.3,0-3.3-1.69v-.41a2.26,2.26,0,0,0-2.18-2.15H153A1.48,1.48,0,0,0,151.5,18V79.57a2.26,2.26,0,0,0,2.18,2.15h12.13a1.48,1.48,0,0,0,1.53-1.51V45.36q0-7.44,4.08-11.52t10.8-4.08h4.11a1.48,1.48,0,0,0,1.53-1.51V17.87a2.26,2.26,0,0,0-2.18-2.15H184A22.55,22.55,0,0,0,172.32,18.6Z"/><path class="cls-1" d="M238.52,18.12A25.74,25.74,0,0,0,225.74,15a23.64,23.64,0,0,0-12.18,3.06,16.79,16.79,0,0,0-3,2.26c-1.14,1.05-3.26-.06-3.26-1.73h0a2.26,2.26,0,0,0-2.18-2.15H193.91A1.48,1.48,0,0,0,192.38,18V79.57a2.26,2.26,0,0,0,2.18,2.15h12.13a1.48,1.48,0,0,0,1.53-1.51V43.44A15.48,15.48,0,0,1,209.9,36a11.76,11.76,0,0,1,4.68-4.8,14.76,14.76,0,0,1,13.68,0,11.76,11.76,0,0,1,4.68,4.8,15.48,15.48,0,0,1,1.68,7.44V79.57a2.26,2.26,0,0,0,2.18,2.15h12a1.48,1.48,0,0,0,1.53-1.51V39.72a26,26,0,0,0-3.12-12.9A22.19,22.19,0,0,0,238.52,18.12Z"/><path class="cls-1" d="M308,19.44a36.55,36.55,0,0,0-34.92,0,34.2,34.2,0,0,0-12.48,12.12,33,33,0,0,0-4.68,17.52,33,33,0,0,0,4.68,17.52,34.07,34.07,0,0,0,12.54,12.12,36.2,36.2,0,0,0,34.74,0A34.2,34.2,0,0,0,320.34,66.6,33,33,0,0,0,325,49.08,33.23,33.23,0,0,0,320.4,31.5,33.89,33.89,0,0,0,308,19.44Zm-1.74,39.78a17.74,17.74,0,0,1-6.36,7,18.75,18.75,0,0,1-18.78,0,17.59,17.59,0,0,1-6.42-7,21.65,21.65,0,0,1-2.34-10.14A21.29,21.29,0,0,1,274.68,39a17.69,17.69,0,0,1,6.42-7,18.75,18.75,0,0,1,18.78,0,17.84,17.84,0,0,1,6.36,7,21.29,21.29,0,0,1,2.34,10.08A21.65,21.65,0,0,1,306.24,59.22Z"/><path class="cls-1" d="M332.52,81.72h12.12a1.48,1.48,0,0,0,1.54-1.51V67.07A2.26,2.26,0,0,0,344,64.92H331.87a1.47,1.47,0,0,0-1.53,1.51V79.57A2.26,2.26,0,0,0,332.52,81.72Z"/><path class="cls-1" d="M374,18.6a12.84,12.84,0,0,0-2.65,2.09c-1.1,1.13-3.29,0-3.29-1.69v-.41a2.26,2.26,0,0,0-2.18-2.15H354.67A1.47,1.47,0,0,0,353.14,18V79.57a2.26,2.26,0,0,0,2.18,2.15h12.12A1.48,1.48,0,0,0,369,80.21V45.36q0-7.44,4.08-11.52t10.8-4.08H388a1.48,1.48,0,0,0,1.54-1.51V17.87a2.26,2.26,0,0,0-2.18-2.15h-1.66A22.55,22.55,0,0,0,374,18.6Z"/><path class="cls-1" d="M411.05,29.7A10.07,10.07,0,0,1,417.3,28a16,16,0,0,1,8.88,2.58A14.17,14.17,0,0,1,431,35.68a2.09,2.09,0,0,0,2.57,1.08l9-4.23a1.58,1.58,0,0,0,.66-2.16,24.11,24.11,0,0,0-9.45-10.93A30.07,30.07,0,0,0,417.41,15a29.62,29.62,0,0,0-12.54,2.52,20.32,20.32,0,0,0-8.52,7A18.21,18.21,0,0,0,393.3,35a17.42,17.42,0,0,0,4.25,11.7q4.26,5,12.42,7.26l10.68,3a18.52,18.52,0,0,1,3.84,1.5,8.69,8.69,0,0,1,2.7,2.16,4.9,4.9,0,0,1,1,3.18,6,6,0,0,1-2.53,5A10.81,10.81,0,0,1,419,70.8a17.19,17.19,0,0,1-10-3.12,20.17,20.17,0,0,1-6.08-6.79,2.14,2.14,0,0,0-2.63-1l-8.93,4.24a1.6,1.6,0,0,0-.67,2.13,25.83,25.83,0,0,0,10.16,12,32.8,32.8,0,0,0,18.17,5,31,31,0,0,0,13-2.52,20.25,20.25,0,0,0,9.72-8.76,17,17,0,0,0,2-6.94q.58-8.09-4.32-13.46-4.38-4.8-12.42-7.2l-10.44-3.12a30.21,30.21,0,0,1-4-1.56,7,7,0,0,1-2.7-2.16,5,5,0,0,1-1-3A5.64,5.64,0,0,1,411.05,29.7Z"/><path class="cls-1" d="M473.36,54l-13-36a2.29,2.29,0,0,0-2.06-1.5H444.88a1.53,1.53,0,0,0-1.39,2.22l24.24,61.62a2.28,2.28,0,0,0,2,1.44h11.38a1.49,1.49,0,0,0,1.43-.92l24.24-61.63a2.17,2.17,0,0,0-2.07-2.73H491.83a1.47,1.47,0,0,0-1.44,1L476.86,54.5C476.31,56,474,55.66,473.36,54Z"/><path class="cls-1" d="M576.79,31.8A33.68,33.68,0,0,0,565,19.56,31.28,31.28,0,0,0,548.29,15,28.91,28.91,0,0,0,535,17.94a24,24,0,0,0-4.47,2.94c-1.17,1-3.21-.15-3.21-1.78v-.51a2.26,2.26,0,0,0-2.18-2.15H514A1.48,1.48,0,0,0,512.41,18v85.62a2.26,2.26,0,0,0,2.18,2.15h12.13a1.47,1.47,0,0,0,1.53-1.51V79c0-1.37,1.55-2,2.77-1.09a22.69,22.69,0,0,0,4.13,2.47,30.52,30.52,0,0,0,13,2.76,32,32,0,0,0,16.92-4.5,32.49,32.49,0,0,0,11.76-12.3,35.06,35.06,0,0,0,4.32-17.28A34.26,34.26,0,0,0,576.79,31.8ZM562.45,59.28a17.62,17.62,0,0,1-16.08,9.48,17.43,17.43,0,0,1-15.78-9.48,21.55,21.55,0,0,1-2.34-10.2A21.29,21.29,0,0,1,530.59,39a17.43,17.43,0,0,1,15.78-9.48A17.62,17.62,0,0,1,562.45,39a20.86,20.86,0,0,1,2.4,10.08A21.11,21.11,0,0,1,562.45,59.28Z"/></g></g></svg>