<svg xmlns="http://www.w3.org/2000/svg" viewBox="0 0 596.17 136.62"><defs><style>.cls-1{fill:#fff;}</style></defs><g id="Layer_2" data-name="Layer 2"><g id="Layer_1-2" data-name="Layer 1"><path class="cls-1" d="M560.31,27.5a18.25,18.25,0,0,0-9.7-2.56,17.71,17.71,0,0,0-16.05,9.64,21.62,21.62,0,0,0-2.38,10.25,21.89,21.89,0,0,0,2.38,10.38,17.71,17.71,0,0,0,16.05,9.64A17.9,17.9,0,0,0,567,55.21a21.45,21.45,0,0,0,2.44-10.38A21.18,21.18,0,0,0,567,34.58,18.22,18.22,0,0,0,560.31,27.5Z"/><path class="cls-1" d="M118.59,27.5a19.09,19.09,0,0,0-19.1,0A18,18,0,0,0,93,34.58a21.62,21.62,0,0,0-2.38,10.25A22,22,0,0,0,93,55.15a18,18,0,0,0,32.1,0,22,22,0,0,0,2.38-10.32,21.62,21.62,0,0,0-2.38-10.25A18.16,18.16,0,0,0,118.59,27.5Z"/><path class="cls-1" d="M299.91,27.5a19.09,19.09,0,0,0-19.1,0,18,18,0,0,0-6.53,7.08,21.62,21.62,0,0,0-2.38,10.25,22,22,0,0,0,2.38,10.32,18.46,18.46,0,0,0,25.63,7.14,18.13,18.13,0,0,0,6.47-7.14,22.14,22.14,0,0,0,2.38-10.32,21.73,21.73,0,0,0-2.38-10.25A18.24,18.24,0,0,0,299.91,27.5Z"/><path class="cls-1" d="M590.38,22.22A44.38,44.38,0,0,0,574.84,6.14,41.93,41.93,0,0,0,552.56,0a40,40,0,0,0-16.83,3.46,12.35,12.35,0,0,0-6.74-2H495.13a11.75,11.75,0,0,0-11,7.67L480,20.5A10.76,10.76,0,0,0,478.66,23l-.6,1.63-5.41-15A12.46,12.46,0,0,0,461,1.46h-13.6a11.73,11.73,0,0,0-8.18,3.32A41.16,41.16,0,0,0,419.45,0a40.37,40.37,0,0,0-17,3.5,33.63,33.63,0,0,0-3.8,2.05A12.39,12.39,0,0,0,388.84.73h-1.69a34.52,34.52,0,0,0-13.62,2.6A12.36,12.36,0,0,0,367,1.46H355.64A11.74,11.74,0,0,0,343.9,13.17l-2.68,37.6h-5.93a50.14,50.14,0,0,0,.36-5.94,44,44,0,0,0-6.18-23.15A44.64,44.64,0,0,0,313.18,5.85a47.32,47.32,0,0,0-45.58,0,44.88,44.88,0,0,0-12.74,10.77A32.63,32.63,0,0,0,242.47,4.47a36.31,36.31,0,0,0-18-4.47,34.88,34.88,0,0,0-14.85,3.11c-1.82-1-37.14-1.51-41.2.22a12.36,12.36,0,0,0-6.54-1.87H150.56a11.75,11.75,0,0,0-11.51,9.45A46.92,46.92,0,0,0,86.28,5.85c-.42.24-.83.5-1.24.76a12.4,12.4,0,0,0-10-5.15H62A11.61,11.61,0,0,0,51,9L43.72,29.27l-7-19.72A12.5,12.5,0,0,0,25.1,1.46H11.73A11.7,11.7,0,0,0,2,6.57,11.91,11.91,0,0,0,.85,17.64L24.69,77.87a15.18,15.18,0,0,1-1.64,2.6,9.19,9.19,0,0,1-1.3.08,17.07,17.07,0,0,1-2.59-.23L17.48,80a11.94,11.94,0,0,0-2.23-.21A11.73,11.73,0,0,0,3.52,91.52v10c0,5,20.37,31.5,24.72,33.2a24.21,24.21,0,0,0,4.92,1.33,39,39,0,0,0,6.51.54,33.44,33.44,0,0,0,14.55-3.13,32.59,32.59,0,0,0,11.31-9.14,50.83,50.83,0,0,0,7.28-12.74l8.85-22.36c.51,1,1,2,1.65,3a42.2,42.2,0,0,0,15.47,15,43.2,43.2,0,0,0,49.68-5,11.67,11.67,0,0,0,11.37,9.07h11.61a11,11,0,0,0,11-11V82.67c.4.61,4.82,17,4.82,17,1.65,6,5.24,11.63,11.67,11.63h11.61a11,11,0,0,0,11-11V65.11a5.77,5.77,0,0,1,.46-2.58,1.74,1.74,0,0,1,.73-.78,2.67,2.67,0,0,1,.56-.23V75.85c0,2.58,4.38,23.86,4.38,23.86,1,6.43,5.23,11.63,11.66,11.63H250.9a11.05,11.05,0,0,0,11-9.61,43.15,43.15,0,0,0,57.75.13,11.66,11.66,0,0,0,11.45,9.48h33.44c6.09,0,13-19.14,13.28-21,0,.1.06.21.1.31a34.35,34.35,0,0,0,13.37,15.81,41.06,41.06,0,0,0,22.59,6.29,39.11,39.11,0,0,0,16.38-3.28A28.84,28.84,0,0,0,443.93,97a24.69,24.69,0,0,0,2.43-6.38l5.24,13.32a11.77,11.77,0,0,0,10.86,7.45h10.9a11,11,0,0,0,10.28-7s9.69-20.4,10.08-20.92v39.22a11.66,11.66,0,0,0,11.66,11.63H517c6.85,0,18-17.13,18.17-21.67.79,0,1.57.07,2.37.07A40.29,40.29,0,0,0,558.68,107c6.18-3.74,29.79-36,31.83-39.7a45.87,45.87,0,0,0,5.66-22.5A45,45,0,0,0,590.38,22.22Zm-541,62.52A43.39,43.39,0,0,1,43.1,95.66a24.34,24.34,0,0,1-8.48,6.9,25.23,25.23,0,0,1-11,2.32,31.35,31.35,0,0,1-5.25-.43,16.68,16.68,0,0,1-3.2-.86,2.29,2.29,0,0,1-1.44-2v-10A1.53,1.53,0,0,1,15.61,90l1.92.34a26.92,26.92,0,0,0,4.22.36q5.49,0,8-2.5a23.43,23.43,0,0,0,4.45-6.65l1.24-2.88a1.78,1.78,0,0,0,0-1.36L10.31,13.89a1.55,1.55,0,0,1,1.42-2.25H25.1a2.32,2.32,0,0,1,2.09,1.49L42,52.43c.64,1.7,3,2,3.55.53L60.56,12.6a1.49,1.49,0,0,1,1.46-1h13a2.2,2.2,0,0,1,2.1,2.78ZM139.4,62.65A34.87,34.87,0,0,1,109,79.49,35.25,35.25,0,0,1,91.37,75,34.59,34.59,0,0,1,78.62,62.65a33.57,33.57,0,0,1-4.76-17.82A33.6,33.6,0,0,1,78.62,27,34.78,34.78,0,0,1,91.31,14.69a37.15,37.15,0,0,1,35.52,0A34.46,34.46,0,0,1,139.46,27a33.84,33.84,0,0,1,4.7,17.88A33.57,33.57,0,0,1,139.4,62.65Zm46.58-39a1.5,1.5,0,0,1-1.56,1.53h-4.18c-4.55,0-8.22,1.39-11,4.15s-4.15,6.67-4.15,11.72V76.49A1.5,1.5,0,0,1,163.55,78H151.22A2.3,2.3,0,0,1,149,75.85V13.17a1.49,1.49,0,0,1,1.56-1.53h11.36a2.29,2.29,0,0,1,2.21,2.18v.42c0,1.73,2.24,2.87,3.36,1.72a13.21,13.21,0,0,1,2.68-2.13,23,23,0,0,1,11.9-2.93h1.69A2.3,2.3,0,0,1,186,13.09Zm63.55,52.84A1.51,1.51,0,0,1,248,78H235.75a2.29,2.29,0,0,1-2.21-2.18V39.1a15.76,15.76,0,0,0-1.71-7.57,12,12,0,0,0-4.76-4.88,15,15,0,0,0-13.92,0,11.88,11.88,0,0,0-4.75,4.88,15.64,15.64,0,0,0-1.71,7.57V76.49A1.5,1.5,0,0,1,205.13,78H192.79a2.29,2.29,0,0,1-2.21-2.18V13.17a1.49,1.49,0,0,1,1.56-1.53h11.35a2.29,2.29,0,0,1,2.22,2.18c0,1.7,2.16,2.83,3.31,1.76a17.43,17.43,0,0,1,3.1-2.3,24.1,24.1,0,0,1,12.39-3.11,26.2,26.2,0,0,1,13,3.17,22.55,22.55,0,0,1,8.85,8.85,26.41,26.41,0,0,1,3.18,13.12Zm71.19-13.84a34.87,34.87,0,0,1-30.39,16.84A35.25,35.25,0,0,1,272.69,75a34.59,34.59,0,0,1-12.75-12.33,33.57,33.57,0,0,1-4.76-17.82A33.6,33.6,0,0,1,259.94,27a34.78,34.78,0,0,1,12.69-12.32,37.15,37.15,0,0,1,35.52,0A34.46,34.46,0,0,1,320.78,27a33.84,33.84,0,0,1,4.7,17.88A33.57,33.57,0,0,1,320.72,62.65ZM347,76.49A1.5,1.5,0,0,1,345.44,78H333.1a2.29,2.29,0,0,1-2.21-2.18V62.48a1.5,1.5,0,0,1,1.56-1.54h12.33A2.3,2.3,0,0,1,347,63.13Zm44.05-52.84a1.49,1.49,0,0,1-1.56,1.53h-4.17q-6.84,0-11,4.15t-4.15,11.72V76.49A1.5,1.5,0,0,1,368.62,78H356.29a2.3,2.3,0,0,1-2.22-2.18V13.17a1.5,1.5,0,0,1,1.57-1.53H367a2.29,2.29,0,0,1,2.22,2.18v.42c0,1.73,2.23,2.87,3.35,1.72a13.27,13.27,0,0,1,2.69-2.13,23,23,0,0,1,11.9-2.93h1.69a2.3,2.3,0,0,1,2.21,2.19ZM446.11,61a17.18,17.18,0,0,1-2,7.06,20.72,20.72,0,0,1-9.88,8.91A31.5,31.5,0,0,1,421,79.49a33.37,33.37,0,0,1-18.49-5.06,26.34,26.34,0,0,1-10.33-12.17,1.62,1.62,0,0,1,.68-2.17L402,55.78a2.16,2.16,0,0,1,2.67,1.06,20.38,20.38,0,0,0,6.19,6.91A17.42,17.42,0,0,0,421,66.92a11,11,0,0,0,6.83-2,6.13,6.13,0,0,0,2.56-5.13,5,5,0,0,0-1-3.23,9,9,0,0,0-2.75-2.2,19.33,19.33,0,0,0-3.9-1.52l-10.87-3q-8.29-2.33-12.63-7.39a17.7,17.7,0,0,1-4.33-11.9A18.58,18.58,0,0,1,398,19.87a20.68,20.68,0,0,1,8.67-7.14,30.23,30.23,0,0,1,12.75-2.56,30.6,30.6,0,0,1,16.6,4.52,24.57,24.57,0,0,1,9.61,11.11A1.62,1.62,0,0,1,445,28l-9.14,4.3a2.12,2.12,0,0,1-2.62-1.1A14.29,14.29,0,0,0,428.36,26a16.21,16.21,0,0,0-9-2.63A10.24,10.24,0,0,0,413,25.12a5.76,5.76,0,0,0-2.32,4.82,5,5,0,0,0,1,3.05,7,7,0,0,0,2.75,2.2,30.55,30.55,0,0,0,4.08,1.59L429.09,40q8.18,2.44,12.63,7.32Q446.72,52.75,446.11,61Zm64.27-46.54L485.73,77.09a1.52,1.52,0,0,1-1.45.94H472.7a2.32,2.32,0,0,1-2.08-1.47L446,13.89a1.55,1.55,0,0,1,1.42-2.25H461a2.3,2.3,0,0,1,2.09,1.52L476.35,49.8c.63,1.72,3,2.08,3.56.54l13.76-37.73a1.5,1.5,0,0,1,1.46-1h13.14A2.21,2.21,0,0,1,510.38,14.42Zm71.23,48a33.07,33.07,0,0,1-12,12.51,32.61,32.61,0,0,1-17.21,4.57,31.05,31.05,0,0,1-13.24-2.8,23.69,23.69,0,0,1-4.2-2.51c-1.24-.94-2.82-.29-2.82,1.11V100.9a1.5,1.5,0,0,1-1.56,1.54H518.29a2.3,2.3,0,0,1-2.22-2.18V13.17a1.49,1.49,0,0,1,1.56-1.53H529a2.29,2.29,0,0,1,2.21,2.18v.52c0,1.66,2.08,2.8,3.26,1.81a24.67,24.67,0,0,1,4.55-3,29.49,29.49,0,0,1,13.55-3,31.85,31.85,0,0,1,17,4.64,34.26,34.26,0,0,1,12,12.45A34.82,34.82,0,0,1,586,44.83,35.67,35.67,0,0,1,581.61,62.41Z"/></g></g></svg>